<?xml version="1.0" encoding="UTF-8"?>
<svg version="1.1" xmlns="http://www.w3.org/2000/svg" width="500" height="500">
<path d="M0 0 C4.04135587 1.59930434 6.67907152 4.48660409 9.625 7.5625 C12.96402902 11.22714016 12.96402902 11.22714016 17 14 C17 14.66 17 15.32 17 16 C17.66 16 18.32 16 19 16 C19 16.66 19 17.32 19 18 C19.66 18 20.32 18 21 18 C21 18.66 21 19.32 21 20 C21.87398437 20.38091797 21.87398437 20.38091797 22.765625 20.76953125 C25.24188033 22.13320333 26.80520626 23.64225203 28.75 25.6875 C31.26982383 28.2764232 33.79805374 30.73771513 36.5625 33.0625 C41.62236488 37.39228417 46.23414487 42.18567126 50.89672852 46.93383789 C51.52635498 47.57184326 52.15598145 48.20984863 52.8046875 48.8671875 C53.37171387 49.44581543 53.93874023 50.02444336 54.52294922 50.62060547 C55.97110166 52.10372935 55.97110166 52.10372935 58 53 C58 53.66 58 54.32 58 55 C58.66 55 59.32 55 60 55 C60 55.66 60 56.32 60 57 C60.66 57 61.32 57 62 57 C62 57.66 62 58.32 62 59 C62.66 59 63.32 59 64 59 C64 59.66 64 60.32 64 61 C64.5775 61.28875 65.155 61.5775 65.75 61.875 C67.83333333 62.91666667 69.91666667 63.95833333 72 65 C79.41435082 57.7769436 79.41435082 57.7769436 86.375 50.125 C90.20250035 45.62205842 94.42630007 41.52238998 98.64599609 37.39111328 C101.70208525 34.48720998 101.70208525 34.48720998 104 31 C104.66 31 105.32 31 106 31 C106 30.34 106 29.68 106 29 C106.66 29 107.32 29 108 29 C108 28.34 108 27.68 108 27 C108.66 27 109.32 27 110 27 C110 26.34 110 25.68 110 25 C110.66 25 111.32 25 112 25 C112.33064453 24.17628906 112.33064453 24.17628906 112.66796875 23.3359375 C114.41463112 20.27287564 116.78903924 18.04053865 119.3125 15.625 C122.37763525 12.64484175 125.37466377 9.69716424 128 6.3125 C128.66 5.549375 129.32 4.78625 130 4 C130.99 4 131.98 4 133 4 C133 9.94 133 15.88 133 22 C137.52799932 23.55779793 142.05618748 25.1150179 146.58499146 26.67047119 C148.19677583 27.22410135 149.80849038 27.77793482 151.4201355 28.33197021 C160.1722995 31.33977472 168.92916489 34.32404966 177.7265625 37.19750977 C201.48867578 44.96888273 224.45947603 54.41520879 247.05078125 65.08203125 C249.08343461 66.03929285 251.11948333 66.98902424 253.15625 67.9375 C262.85480376 72.4629002 272.44946229 77.17053516 282 82 C282.66 82.33 283.32 82.66 284 83 C282.59389608 87.21831177 279.63395201 88.05443721 275.875 89.9375 C274.55935311 90.61222405 273.24424639 91.28800242 271.9296875 91.96484375 C271.28225586 92.29597168 270.63482422 92.62709961 269.96777344 92.96826172 C266.92873729 94.56168191 263.96742042 96.27735464 261 98 C261.50967495 105.27785852 263.26768423 111.4727053 265.75 118.3125 C266.11343506 119.33432373 266.47687012 120.35614746 266.85131836 121.40893555 C268.98172608 127.34631601 271.22199559 133.21314584 273.7265625 139.00390625 C278.0038729 149.0673942 281.77420002 159.35529553 285.58740234 169.60180664 C288.20195004 176.59593604 290.93338917 183.54404881 293.66552734 190.49291992 C295.58613888 195.37889018 297.49139175 200.27000377 299.37109375 205.171875 C302.09620295 212.26935697 304.87064059 219.34694491 307.65673828 226.4206543 C308.50025825 228.56315594 309.34194782 230.70637098 310.18359375 232.84960938 C310.73667183 234.25532929 311.29005329 235.66092989 311.84375 237.06640625 C312.1109082 237.74466461 312.37806641 238.42292297 312.65332031 239.12173462 C314.72980494 244.36987435 316.90397866 249.57293927 319.13476562 254.75756836 C320 257 320 257 320 259 C319.01 259 318.02 259 317 259 C317 258.34 317 257.68 317 257 C316.34 257 315.68 257 315 257 C315 256.34 315 255.68 315 255 C314.34 255 313.68 255 313 255 C311.625 253.6015625 311.625 253.6015625 310 251.625 C307.13954645 248.25204852 304.15130339 245.10326523 301 242 C297.41441301 238.45767801 294.05108338 234.82444339 290.77734375 230.99609375 C288.12305044 228.01511819 285.27011363 225.24712517 282.40625 222.46875 C279.78231508 219.77666093 277.33645362 216.96611536 274.87353516 214.12744141 C271.19823905 209.95405983 267.3428292 205.94749631 263.51757812 201.91210938 C260.00746653 198.19233097 256.59132612 194.42492227 253.30126953 190.50854492 C250.47775624 187.23528252 247.30977795 184.29601004 244.1875 181.3125 C242 179 242 179 242 177 C240.88625 177.0825 239.7725 177.165 238.625 177.25 C235.09439361 177.25386789 232.52559987 176.58562846 229.28125 175.2109375 C228.4042041 174.84613281 227.5271582 174.48132813 226.62353516 174.10546875 C225.75776855 173.74066406 224.89200195 173.37585938 224 173 C201.31058393 163.78502869 177.81010399 156.80072468 154.25854492 150.15600586 C153.35338135 149.89827393 152.44821777 149.64054199 151.515625 149.375 C150.73477539 149.15585937 149.95392578 148.93671875 149.14941406 148.7109375 C148.44010742 148.47632813 147.73080078 148.24171875 147 148 C146.31284912 147.78190674 145.62569824 147.56381348 144.91772461 147.33911133 C142.00009602 145.3017857 141.07909201 142.39812046 139.80078125 139.19921875 C139.52026413 138.52582962 139.23974701 137.85244049 138.95072937 137.15864563 C138.36049796 135.73474776 137.7767208 134.30815969 137.19897461 132.87915039 C136.31777451 130.70054029 135.41766464 128.53056602 134.51367188 126.36132812 C133.94157999 124.97442323 133.37058026 123.58706723 132.80078125 122.19921875 C132.40080681 121.23020882 132.40080681 121.23020882 131.99275208 120.24162292 C130.62729647 116.85227121 129.57256899 113.61221775 129 110 C124.545 110.99 124.545 110.99 120 112 C119.85377197 112.68102783 119.70754395 113.36205566 119.55688477 114.0637207 C118.89382858 117.14702404 118.22819465 120.22976529 117.5625 123.3125 C117.33240234 124.38435547 117.10230469 125.45621094 116.86523438 126.56054688 C116.64287109 127.58857422 116.42050781 128.61660156 116.19140625 129.67578125 C115.98717041 130.62364502 115.78293457 131.57150879 115.57250977 132.5480957 C115 135 115 135 114 138 C112.32592773 138.79956055 112.32592773 138.79956055 110.18359375 139.38671875 C109.41982422 139.60263672 108.65605469 139.81855469 107.86914062 140.04101562 C107.06669922 140.25435547 106.26425781 140.46769531 105.4375 140.6875 C104.22803711 141.02491211 104.22803711 141.02491211 102.99414062 141.36914062 C100.99917301 141.9239541 98.99995101 142.46342778 97 143 C98.44083342 153.1444044 100.15958672 163.14624913 102.5 173.125 C104.09719502 179.93491313 105.5963167 186.73580327 106.8125 193.625 C106.93625 194.3173877 107.06 195.00977539 107.1875 195.72314453 C107.72979542 198.89318025 108 201.76721062 108 205 C103.46457303 203.49168249 101.54246187 199.80647417 99.0625 196 C98.08400503 194.53773978 97.10345616 193.07685234 96.12109375 191.6171875 C95.61046387 190.85631836 95.09983398 190.09544922 94.57373047 189.31152344 C91.99842498 185.52886871 89.31496886 181.82659842 86.625 178.125 C86.0889917 177.38620605 85.5529834 176.64741211 85.00073242 175.88623047 C83.90138404 174.37170352 82.80152573 172.85754659 81.70117188 171.34375 C78.19738447 166.51648836 74.71332614 161.67493626 71.22509766 156.83642578 C70.7151123 156.1298584 70.20512695 155.42329102 69.6796875 154.6953125 C69.23351074 154.07672363 68.78733398 153.45813477 68.32763672 152.82080078 C66.90291437 150.86685094 65.45491937 148.93154008 64 147 C55.14078494 148.68555847 46.71297063 151.62320073 38.1875 154.5 C36.57804826 155.04005288 34.96859182 155.58009177 33.35913086 156.12011719 C13.48703649 162.8064179 -6.24786601 169.84366156 -25.8046875 177.40625 C-35.5286597 181.1147272 -35.5286597 181.1147272 -41 181 C-43.14327281 169.20529718 -45.24663285 157.53566597 -45.70458984 145.5402832 C-45.88927582 140.9886134 -46.58090629 136.82882176 -47.60546875 132.40625 C-48.06190677 129.62242998 -47.98033712 127.06867604 -47.875 124.25 C-47.79012302 114.07688827 -47.74668377 100.1225587 -54.50390625 91.984375 C-57.25433194 90.02352729 -59.97736318 88.49605257 -63 87 C-64.26157187 86.04120538 -65.49833877 85.04725655 -66.6875 84 C-67.450625 83.34 -68.21375 82.68 -69 82 C-65.44526722 77.2603563 -61.44626494 73.79537384 -56.7734375 70.16796875 C-52.85274635 67.10320313 -49.05846398 63.89007198 -45.25 60.6875 C-43 59 -43 59 -41 59 C-41 58.34 -41 57.68 -41 57 C-39.44996996 55.60410053 -37.83365761 54.28112981 -36.1875 53 C-34.84751953 51.948125 -34.84751953 51.948125 -33.48046875 50.875 C-28.76614828 47.31141917 -27.06301996 46.7546946 -21.3828125 47.44140625 C-13.86846638 48.68222784 -6.43528021 50.35874205 1 52 C1.88024309 49.71563211 2.72831886 47.42618935 3.5625 45.125 C3.80935547 44.49335938 4.05621094 43.86171875 4.31054688 43.2109375 C7.53257246 34.1348091 4.76611615 25.26441881 2.4375 16.25 C-0.35169025 5.44669009 -0.35169025 5.44669009 0 0 Z " fill="#EEEEED" transform="translate(138,146)"/>
<path d="M0 0 C3.12431742 1.34965147 4.84518914 2.70837447 6.8828125 5.421875 C7.40512451 6.11047607 7.92743652 6.79907715 8.46557617 7.50854492 C9.01318604 8.2482251 9.5607959 8.98790527 10.125 9.75 C10.69903564 10.51352783 11.27307129 11.27705566 11.86450195 12.0637207 C16.61036343 18.40318904 21.2370888 24.82520952 25.79833984 31.29833984 C27.85296762 34.20787979 29.92757995 37.10312069 32 40 C34.49160888 43.48592202 36.98160955 46.97294957 39.46484375 50.46484375 C44.21347358 57.13696921 49.01533655 63.76602385 53.87011719 70.36132812 C58.64690451 76.85994099 63.32946955 83.42478468 68 90 C66.92055257 87.33170298 65.83656061 84.6653997 64.75 82 C64.29947266 80.88431641 64.29947266 80.88431641 63.83984375 79.74609375 C62.33416779 76.06199301 60.76419725 72.4629596 58.9453125 68.921875 C57.00913059 65.12830929 55.54424384 61.25991125 54.125 57.25 C48.51065671 42.05304177 41.56733383 32.54180769 29.2265625 22.00390625 C24.280961 17.5528649 19.66828509 12.73830936 15 8 C18.62292125 6.72303341 21.06569584 7.28758815 24.734375 8.2578125 C25.85730957 8.55091309 26.98024414 8.84401367 28.13720703 9.14599609 C29.32942871 9.46906738 30.52165039 9.79213867 31.75 10.125 C32.97702637 10.45193848 34.20405273 10.77887695 35.46826172 11.11572266 C44.39453447 13.51563877 53.24575766 16.02752876 62 19 C62.8451416 19.27972656 63.6902832 19.55945313 64.56103516 19.84765625 C78.1039117 24.35958863 91.19488832 29.6756453 104.1875 35.5625 C104.87415741 35.87161316 105.56081482 36.18072632 106.26828003 36.49920654 C115.8336448 40.82219345 124.97504578 45.64058188 134 51 C133.10152022 54.96815682 131.40953297 57.51470457 129.05859375 60.8046875 C127.14446118 64.77421704 127.76030369 68.11227518 128.8828125 72.26953125 C129.29273438 73.43871094 129.70265625 74.60789062 130.125 75.8125 C130.34800781 76.45558105 130.57101562 77.09866211 130.80078125 77.76123047 C131.2786533 79.13445258 131.76086776 80.50617008 132.24707031 81.87646484 C133.00518573 84.01462565 133.74996154 86.15705805 134.4921875 88.30078125 C134.99414279 89.74241359 135.4967326 91.18382518 136 92.625 C136.22445801 93.26800049 136.44891602 93.91100098 136.68017578 94.57348633 C140.65729671 105.8242947 145.12594522 116.89945761 149.5 128 C152.66262149 136.02614866 155.79805854 144.06137457 158.88818359 152.11572266 C160.25120299 155.65167153 161.64898656 159.17143453 163.0625 162.6875 C163.3107251 163.30979492 163.5589502 163.93208984 163.81469727 164.57324219 C164.95057288 167.41678477 166.10584359 170.24876412 167.3046875 173.06640625 C167.67851562 173.95199219 168.05234375 174.83757812 168.4375 175.75 C168.76621094 176.50796875 169.09492188 177.2659375 169.43359375 178.046875 C170 180 170 180 169 183 C166.8548198 180.61646645 164.70991816 178.23269063 162.56640625 175.84765625 C160.95446306 174.05906176 159.33794499 172.27456879 157.71484375 170.49609375 C153.91216121 166.31783763 150.22882642 162.09023014 146.6875 157.6875 C142.27628601 152.2333545 137.55986354 147.11740864 132.77734375 141.9921875 C130.06853234 139.08698048 127.45146638 136.1116981 124.85546875 133.10546875 C121.90176404 129.75379119 118.86079428 126.48163818 115.81811523 123.21069336 C113.89616597 121.13199059 112.08610771 119.13087458 110.52734375 116.76171875 C108.39738503 114.30491215 106.43053036 113.91144929 103.3125 113.0625 C102.17039062 112.73894531 101.02828125 112.41539062 99.8515625 112.08203125 C99.23571289 111.9113916 98.61986328 111.74075195 97.98535156 111.56494141 C94.36329116 110.53426657 90.77826539 109.38398934 87.1875 108.25 C85.80609744 107.81736379 84.42459614 107.38504266 83.04296875 106.953125 C81.53669922 106.48132813 81.53669922 106.48132813 80 106 C81.39547757 107.70862395 82.7914002 109.41688442 84.1875 111.125 C85.00476563 112.12660156 85.82203125 113.12820313 86.6640625 114.16015625 C88.43933744 116.31839183 90.23721975 118.44707405 92.0625 120.5625 C94 123 94 123 94 125 C86.01976978 122.97479667 78.34269241 120.41877523 70.625 117.5625 C56.17447122 112.18340146 56.17447122 112.18340146 41.29296875 108.23046875 C32.09610907 106.15620277 32.09610907 106.15620277 29.21875 103.12109375 C27.81444052 100.46100753 26.90544956 97.8713673 26 95 C25.5140821 93.61413368 25.02280873 92.23013812 24.52734375 90.84765625 C23.74115951 88.65129008 22.96418187 86.45529368 22.22851562 84.24145508 C20.76304868 79.86699542 19.0140996 75.88235455 16.77172852 71.84619141 C16 70 16 70 16 66 C13.37440156 66.3080144 10.74960194 66.62120182 8.125 66.9375 C7.37863281 67.02451172 6.63226563 67.11152344 5.86328125 67.20117188 C1.8046769 67.63326063 1.8046769 67.63326063 -2 69 C-3.54023996 69.06950541 -5.08334988 69.08452357 -6.625 69.0625 C-7.44226563 69.05347656 -8.25953125 69.04445313 -9.1015625 69.03515625 C-9.72804687 69.02355469 -10.35453125 69.01195312 -11 69 C-11.16435547 70.27230469 -11.16435547 70.27230469 -11.33203125 71.5703125 C-11.66629891 74.04334964 -12.03336422 76.51208356 -12.42578125 78.9765625 C-12.84316117 81.64391141 -13.04889014 84.11651441 -13.16796875 86.8359375 C-13.53575609 90.89457898 -13.91850398 93.47466539 -16 97 C-21.52100998 100.51901238 -29.41576267 103 -36 103 C-37.32349832 90.49716484 -38.32701547 77.98381267 -39.125 65.4375 C-39.16929138 64.76058105 -39.21358276 64.08366211 -39.25921631 63.38623047 C-39.54900785 58.92573744 -39.79247678 54.46504808 -40 50 C-40.05833008 48.85136475 -40.11666016 47.70272949 -40.17675781 46.51928711 C-40.20866211 45.45846924 -40.24056641 44.39765137 -40.2734375 43.3046875 C-40.32250244 41.91805908 -40.32250244 41.91805908 -40.37255859 40.50341797 C-39.63606487 35.55452763 -35.74293592 32.94272203 -32 30 C-30.74546638 28.90098707 -29.49540226 27.79684991 -28.25 26.6875 C-27.59 26.11773437 -26.93 25.54796875 -26.25 24.9609375 C-17.12809125 17.01094064 -8.48530267 8.62070644 0 0 Z " fill="#050505" transform="translate(259,179)"/>
<path d="M0 0 C4.04135587 1.59930434 6.67907152 4.48660409 9.625 7.5625 C12.96402902 11.22714016 12.96402902 11.22714016 17 14 C17 14.66 17 15.32 17 16 C17.66 16 18.32 16 19 16 C19 16.66 19 17.32 19 18 C19.66 18 20.32 18 21 18 C21 18.66 21 19.32 21 20 C21.87398437 20.38091797 21.87398437 20.38091797 22.765625 20.76953125 C25.24188033 22.13320333 26.80520626 23.64225203 28.75 25.6875 C31.26982383 28.2764232 33.79805374 30.73771513 36.5625 33.0625 C41.62236488 37.39228417 46.23414487 42.18567126 50.89672852 46.93383789 C51.52635498 47.57184326 52.15598145 48.20984863 52.8046875 48.8671875 C53.37171387 49.44581543 53.93874023 50.02444336 54.52294922 50.62060547 C55.97110166 52.10372935 55.97110166 52.10372935 58 53 C58 53.66 58 54.32 58 55 C58.66 55 59.32 55 60 55 C60 55.66 60 56.32 60 57 C60.66 57 61.32 57 62 57 C62 57.66 62 58.32 62 59 C62.66 59 63.32 59 64 59 C64 59.66 64 60.32 64 61 C64.5775 61.28875 65.155 61.5775 65.75 61.875 C67.83333333 62.91666667 69.91666667 63.95833333 72 65 C79.41435082 57.7769436 79.41435082 57.7769436 86.375 50.125 C90.20250035 45.62205842 94.42630007 41.52238998 98.64599609 37.39111328 C101.70208525 34.48720998 101.70208525 34.48720998 104 31 C104.66 31 105.32 31 106 31 C106 30.34 106 29.68 106 29 C106.66 29 107.32 29 108 29 C108 28.34 108 27.68 108 27 C108.66 27 109.32 27 110 27 C110 26.34 110 25.68 110 25 C110.66 25 111.32 25 112 25 C112.33064453 24.17628906 112.33064453 24.17628906 112.66796875 23.3359375 C114.41463112 20.27287564 116.78903924 18.04053865 119.3125 15.625 C122.37763525 12.64484175 125.37466377 9.69716424 128 6.3125 C128.66 5.549375 129.32 4.78625 130 4 C130.99 4 131.98 4 133 4 C133 9.94 133 15.88 133 22 C137.52799932 23.55779793 142.05618748 25.1150179 146.58499146 26.67047119 C148.19677583 27.22410135 149.80849038 27.77793482 151.4201355 28.33197021 C160.1722995 31.33977472 168.92916489 34.32404966 177.7265625 37.19750977 C201.48867578 44.96888273 224.45947603 54.41520879 247.05078125 65.08203125 C249.08343461 66.03929285 251.11948333 66.98902424 253.15625 67.9375 C262.85480376 72.4629002 272.44946229 77.17053516 282 82 C282.66 82.33 283.32 82.66 284 83 C282.59389608 87.21831177 279.63395201 88.05443721 275.875 89.9375 C274.55935311 90.61222405 273.24424639 91.28800242 271.9296875 91.96484375 C271.28225586 92.29597168 270.63482422 92.62709961 269.96777344 92.96826172 C266.92873729 94.56168191 263.96742042 96.27735464 261 98 C261.50967495 105.27785852 263.26768423 111.4727053 265.75 118.3125 C266.11343506 119.33432373 266.47687012 120.35614746 266.85131836 121.40893555 C268.98172608 127.34631601 271.22199559 133.21314584 273.7265625 139.00390625 C278.0038729 149.0673942 281.77420002 159.35529553 285.58740234 169.60180664 C288.20195004 176.59593604 290.93338917 183.54404881 293.66552734 190.49291992 C295.58613888 195.37889018 297.49139175 200.27000377 299.37109375 205.171875 C302.09620295 212.26935697 304.87064059 219.34694491 307.65673828 226.4206543 C308.50025825 228.56315594 309.34194782 230.70637098 310.18359375 232.84960938 C310.73667183 234.25532929 311.29005329 235.66092989 311.84375 237.06640625 C312.1109082 237.74466461 312.37806641 238.42292297 312.65332031 239.12173462 C314.72980494 244.36987435 316.90397866 249.57293927 319.13476562 254.75756836 C320 257 320 257 320 259 C319.01 259 318.02 259 317 259 C317 258.34 317 257.68 317 257 C316.34 257 315.68 257 315 257 C315 256.34 315 255.68 315 255 C314.34 255 313.68 255 313 255 C311.625 253.6015625 311.625 253.6015625 310 251.625 C307.13954645 248.25204852 304.15130339 245.10326523 301 242 C297.41441301 238.45767801 294.05108338 234.82444339 290.77734375 230.99609375 C288.12305044 228.01511819 285.27011363 225.24712517 282.40625 222.46875 C279.78231508 219.77666093 277.33645362 216.96611536 274.87353516 214.12744141 C271.19823905 209.95405983 267.3428292 205.94749631 263.51757812 201.91210938 C260.00746653 198.19233097 256.59132612 194.42492227 253.30126953 190.50854492 C250.47775624 187.23528252 247.30977795 184.29601004 244.1875 181.3125 C242 179 242 179 242 177 C240.88625 177.0825 239.7725 177.165 238.625 177.25 C235.09439361 177.25386789 232.52559987 176.58562846 229.28125 175.2109375 C228.4042041 174.84613281 227.5271582 174.48132813 226.62353516 174.10546875 C225.75776855 173.74066406 224.89200195 173.37585938 224 173 C201.31058393 163.78502869 177.81010399 156.80072468 154.25854492 150.15600586 C153.35338135 149.89827393 152.44821777 149.64054199 151.515625 149.375 C150.73477539 149.15585937 149.95392578 148.93671875 149.14941406 148.7109375 C148.44010742 148.47632813 147.73080078 148.24171875 147 148 C146.31284912 147.78190674 145.62569824 147.56381348 144.91772461 147.33911133 C142.00009602 145.3017857 141.07909201 142.39812046 139.80078125 139.19921875 C139.52026413 138.52582962 139.23974701 137.85244049 138.95072937 137.15864563 C138.36049796 135.73474776 137.7767208 134.30815969 137.19897461 132.87915039 C136.31777451 130.70054029 135.41766464 128.53056602 134.51367188 126.36132812 C133.94157999 124.97442323 133.37058026 123.58706723 132.80078125 122.19921875 C132.40080681 121.23020882 132.40080681 121.23020882 131.99275208 120.24162292 C130.62729647 116.85227121 129.57256899 113.61221775 129 110 C124.545 110.99 124.545 110.99 120 112 C119.85377197 112.68102783 119.70754395 113.36205566 119.55688477 114.0637207 C118.89382858 117.14702404 118.22819465 120.22976529 117.5625 123.3125 C117.33240234 124.38435547 117.10230469 125.45621094 116.86523438 126.56054688 C116.64287109 127.58857422 116.42050781 128.61660156 116.19140625 129.67578125 C115.98717041 130.62364502 115.78293457 131.57150879 115.57250977 132.5480957 C115 135 115 135 114 138 C111.17396083 139.01961372 108.45728506 139.86309069 105.5625 140.625 C104.00092567 141.05331753 102.43970998 141.48294536 100.87890625 141.9140625 C100.1835376 142.0992041 99.48816895 142.2843457 98.77172852 142.47509766 C96.91813506 142.96813291 96.91813506 142.96813291 95 144 C95.33 142.35 95.66 140.7 96 139 C97.32 139.66 98.64 140.32 100 141 C98.63676257 138.9600281 98.63676257 138.9600281 97 137 C96.34 137 95.68 137 95 137 C96.38827146 133.64501065 97.85585774 131.84949545 101 130 C102.32 130 103.64 130 105 130 C105.18369141 128.08380859 105.18369141 128.08380859 105.37109375 126.12890625 C105.9425752 120.98557317 106.95361225 115.98822899 108.0625 110.9375 C108.24876953 110.07189453 108.43503906 109.20628906 108.62695312 108.31445312 C109.08066267 106.20877549 109.53976004 104.10425993 110 102 C110.62648437 101.93941406 111.25296875 101.87882812 111.8984375 101.81640625 C112.71570313 101.73261719 113.53296875 101.64882812 114.375 101.5625 C115.18710938 101.48128906 115.99921875 101.40007812 116.8359375 101.31640625 C119.04272805 101.10909886 119.04272805 101.10909886 121 100 C123.71262116 99.7677354 126.40773126 99.58063765 129.125 99.4375 C130.25615234 99.37272461 130.25615234 99.37272461 131.41015625 99.30664062 C133.27321888 99.2005168 135.13658524 99.09974999 137 99 C137.91038083 101.27595208 138.82064223 103.55195124 139.73046875 105.828125 C140.62713739 108.06841712 141.52576333 110.30792632 142.42578125 112.546875 C142.67118652 113.16175781 142.9165918 113.77664063 143.16943359 114.41015625 C143.68639821 115.69057211 144.21430601 116.96661797 144.75244141 118.23828125 C146.07752467 121.41655487 147.04705707 124.23706586 147.72265625 127.640625 C148.6291575 131.63105262 149.33489567 133.85802917 152 137 C158.0296631 139.91307609 164.71233018 141.14051017 171.26513672 142.31494141 C174.69920619 143.17514485 177.76043614 144.57752176 181 146 C183.27556705 146.82656675 185.55982336 147.6295477 187.8515625 148.41015625 C188.4734848 148.62312851 189.0954071 148.83610077 189.73617554 149.05552673 C191.69825982 149.72705959 193.66153127 150.39502708 195.625 151.0625 C197.59543372 151.7340412 199.56558659 152.40638117 201.5352478 153.08018494 C203.31669754 153.68936175 205.09899869 154.29604708 206.88134766 154.90258789 C209.62108465 155.86666475 212.31380058 156.89681803 215 158 C209.37427363 150.89679911 209.37427363 150.89679911 203.5 144 C201 141 201 141 201 139 C204.88000552 139.93638131 208.7527109 140.89203037 212.6171875 141.890625 C215.26540675 142.5748539 217.88828911 143.18271155 220.5703125 143.734375 C230.28593683 146.02866701 235.01978032 151.52956376 241 159 C242.15903068 160.3399764 243.32468228 161.67428617 244.5 163 C245.03882813 163.62261719 245.57765625 164.24523437 246.1328125 164.88671875 C248.03906781 167.04421691 249.98828377 169.15858673 251.94555664 171.26977539 C256.75103387 176.45607951 261.30867258 181.76436722 265.74609375 187.2734375 C268.91832781 191.11090608 272.27660915 194.76413507 275.64453125 198.4296875 C280.58590897 203.82177131 285.34610616 209.35891656 290 215 C288.22874819 208.49100959 285.97465373 202.34479808 283.32421875 196.14453125 C281.55087856 191.93350217 279.92875594 187.67028383 278.30859375 183.3984375 C275.83982677 176.98701281 273.25439158 170.62250903 270.66796875 164.2578125 C265.70068179 152.00013478 261.01113247 139.70360953 256.74951172 127.18359375 C255.61594977 123.88112531 254.4327981 120.59766029 253.25 117.3125 C252.85941406 116.21550781 252.46882813 115.11851562 252.06640625 113.98828125 C251.39526329 112.10760594 250.71663588 110.22956823 250.02734375 108.35546875 C247.18045104 100.3709278 247.18045104 100.3709278 248 96 C249.44412883 93.57637509 251.00047425 91.31186438 252.6875 89.05078125 C254.26952685 86.98466803 254.26952685 86.98466803 254 84 C218.0894627 64.22952149 177.84717256 47.00258133 137 41 C139.662342 43.69181275 142.33066667 46.37762147 145 49.0625 C145.74378906 49.81466797 146.48757813 50.56683594 147.25390625 51.34179688 C151.44227707 55.54837801 155.70282968 59.59294969 160.21850586 63.44726562 C170.86795453 72.72922993 174.71895834 85.44291527 179.53125 98.3515625 C180.73067933 101.330996 182.00087453 104.2328727 183.34375 107.1484375 C183.75963379 108.05174805 184.17551758 108.95505859 184.60400391 109.88574219 C185.44117148 111.69001037 186.28700378 113.49028731 187.14208984 115.28613281 C187.52574707 116.11209961 187.9094043 116.93806641 188.3046875 117.7890625 C188.65515137 118.52850098 189.00561523 119.26793945 189.36669922 120.02978516 C190 122 190 122 189 125 C188.46632813 124.22398437 187.93265625 123.44796875 187.3828125 122.6484375 C179.46482635 111.16872748 171.36619232 99.83193213 163.1015625 88.59936523 C160.07753348 84.48432855 157.08706853 80.34733179 154.125 76.1875 C148.67214868 68.53341755 143.19530089 60.89758671 137.66552734 53.29882812 C135.98036457 50.97289839 134.31245517 48.63518635 132.64453125 46.296875 C131.57626362 44.82237824 130.50728212 43.34839834 129.4375 41.875 C128.94910645 41.18164551 128.46071289 40.48829102 127.95751953 39.77392578 C126.44215765 37.6448747 126.44215765 37.6448747 124 35 C120.08391637 34.58724202 120.08391637 34.58724202 117.92871094 36.63305664 C117.20458008 37.38449951 116.48044922 38.13594238 115.734375 38.91015625 C114.92613281 39.73580078 114.11789063 40.56144531 113.28515625 41.41210938 C112.44855469 42.28673828 111.61195313 43.16136719 110.75 44.0625 C104.0860917 50.94086689 97.44957138 57.64363473 89.8125 63.44921875 C88.884375 64.18785156 87.95625 64.92648438 87 65.6875 C86.05125 66.41324219 85.1025 67.13898438 84.125 67.88671875 C80.80062565 72.75717161 81.60483737 77.27135654 82 83 C82.06832031 84.20889893 82.13664063 85.41779785 82.20703125 86.66333008 C82.40390079 89.94400254 82.62286226 93.22215292 82.8550415 96.50048828 C83.73459605 109.0120128 84.29102708 121.45349904 84 134 C81.77290145 130.65935217 81.12855523 127.65955355 80.3125 123.8125 C77.98054516 113.35270848 74.91815936 103.11529944 71.81713867 92.86157227 C71.26577367 90.93072397 70.76685024 88.98423449 70.31762695 87.02709961 C68.82638823 80.64322117 67.41554538 77.47465097 62.3125 73.3125 C61.22913393 72.39871561 60.14710527 71.48334331 59.06640625 70.56640625 C58.05449219 69.71949219 57.04257813 68.87257813 56 68 C54.56382954 66.60310942 53.14431707 65.18866911 51.75 63.75 C49.4144152 61.36855653 47.03142093 59.13277083 44.484375 56.98046875 C38.88722943 52.11692964 33.71707016 46.82466226 28.5 41.5625 C27.47679861 40.5342702 26.45336267 39.50627374 25.4296875 38.47851562 C22.95042001 35.98835662 20.47432462 33.49507167 18 31 C18.061875 32.134375 18.12375 33.26875 18.1875 34.4375 C18.1875 39.3785494 16.75786751 43.43112813 15 48 C14.71382813 48.77472656 14.42765625 49.54945313 14.1328125 50.34765625 C13.43339693 52.23607828 12.71831936 54.11868738 12 56 C13.04542969 55.8659375 14.09085937 55.731875 15.16796875 55.59375 C19 56 19 56 21.73828125 58.71875 C22.62150675 59.96167076 23.47821186 61.22371531 24.3125 62.5 C25.01342773 63.51344482 25.01342773 63.51344482 25.72851562 64.54736328 C29.82215016 70.53451096 33.66745083 76.68980697 37.453125 82.875 C40.14164428 87.2590956 42.94236483 91.56659259 45.75 95.875 C47.10068681 97.96302395 48.44944301 100.05227914 49.79736328 102.14208984 C50.86644118 103.79366979 51.94614567 105.43836018 53.02734375 107.08203125 C56.4925028 112.52029263 57.82166917 115.77427285 56.5625 122.25 C56 124 56 124 55 126 C54.62939453 125.59910156 54.25878906 125.19820313 53.87695312 124.78515625 C45.74871104 116.0102364 37.51374933 107.38720173 28.9296875 99.0546875 C28.28386719 98.42046875 27.63804687 97.78625 26.97265625 97.1328125 C26.39781494 96.57480957 25.82297363 96.01680664 25.23071289 95.44189453 C24 94 24 94 24 92 C19.71 92.33 15.42 92.66 11 93 C14.73295272 88.46712884 18.38486548 84.62617712 23 81 C20.32485727 75.96766183 17.61982352 71.42422875 14 67 C14 66.34 14 65.68 14 65 C13.40058594 65.05800781 12.80117187 65.11601562 12.18359375 65.17578125 C3.42089098 65.61204668 -4.51020644 63.76598612 -12.98852539 61.69067383 C-13.95008545 61.4614624 -14.91164551 61.23225098 -15.90234375 60.99609375 C-16.76335693 60.78138428 -17.62437012 60.5666748 -18.51147461 60.34545898 C-22.23849111 59.82807172 -24.85519715 60.27863233 -28.04882812 62.29101562 C-28.70302734 62.82404297 -29.35722656 63.35707031 -30.03125 63.90625 C-30.75957031 64.48503906 -31.48789063 65.06382812 -32.23828125 65.66015625 C-32.98464844 66.26730469 -33.73101562 66.87445313 -34.5 67.5 C-35.98284283 68.70625038 -37.47224477 69.90449186 -38.96875 71.09375 C-39.62294922 71.62677734 -40.27714844 72.15980469 -40.95117188 72.70898438 C-44.67554832 75.05580309 -48.67899809 75.24005566 -53 75 C-54 74 -54 74 -54.3984375 71.2421875 C-54 68 -54 68 -51.6640625 65.4453125 C-50.66117187 64.67960937 -49.65828125 63.91390625 -48.625 63.125 C-47.12839844 61.95324219 -47.12839844 61.95324219 -45.6015625 60.7578125 C-43 59 -43 59 -41 59 C-41 58.34 -41 57.68 -41 57 C-39.44996996 55.60410053 -37.83365761 54.28112981 -36.1875 53 C-35.29417969 52.29875 -34.40085937 51.5975 -33.48046875 50.875 C-28.76614828 47.31141917 -27.06301996 46.7546946 -21.3828125 47.44140625 C-13.86846638 48.68222784 -6.43528021 50.35874205 1 52 C1.88024309 49.71563211 2.72831886 47.42618935 3.5625 45.125 C3.80935547 44.49335938 4.05621094 43.86171875 4.31054688 43.2109375 C7.53257246 34.1348091 4.76611615 25.26441881 2.4375 16.25 C-0.35169025 5.44669009 -0.35169025 5.44669009 0 0 Z " fill="#EFEFEE" transform="translate(138,146)"/>
<path d="M0 0 C4.61679311 1.08241741 8.55178 1.45993745 13.3203125 1.23168945 C16.40961663 1.35250023 18.10124369 1.68484162 20.29101562 3.92114258 C23.60643933 8.1451409 26.25895554 12.71014601 28.8203125 17.41918945 C26.05079268 20.83445223 23.41254954 23.99028836 20.0078125 26.79418945 C19.10095703 27.54829102 19.10095703 27.54829102 18.17578125 28.31762695 C17.72847656 28.68114258 17.28117187 29.0446582 16.8203125 29.41918945 C17.60535156 29.32637695 18.39039063 29.23356445 19.19921875 29.13793945 C20.77509766 29.0296582 20.77509766 29.0296582 22.3828125 28.91918945 C23.41535156 28.82637695 24.44789063 28.73356445 25.51171875 28.63793945 C29.87157251 29.66742086 31.15836261 31.64441589 33.89428711 35.06176758 C35.93741163 37.56251677 38.11797531 39.80557571 40.4140625 42.07543945 C41.21714844 42.87079102 42.02023438 43.66614258 42.84765625 44.4855957 C44.07162109 45.69022461 44.07162109 45.69022461 45.3203125 46.91918945 C61.45332941 62.79734038 61.45332941 62.79734038 63.8203125 69.41918945 C54.82358758 73.09279432 45.72649929 76.49546794 36.6328125 79.91918945 C27.05821537 83.52678311 17.48749911 87.1415981 7.95703125 90.86450195 C6.91419731 91.27131195 6.91419731 91.27131195 5.85029602 91.68634033 C2.60053313 92.95494159 -0.64690496 94.22882686 -3.89135742 95.51098633 C-11.55985018 98.51213798 -19.27420532 101.11287665 -27.1796875 103.41918945 C-29.1796875 93.91918945 -29.1796875 93.91918945 -29.1796875 89.41918945 C-28.5196875 89.41918945 -27.8596875 89.41918945 -27.1796875 89.41918945 C-27.4684375 88.37762695 -27.7571875 87.33606445 -28.0546875 86.26293945 C-29.93063935 79.1554363 -31.43489911 72.63681401 -31.1171875 65.23168945 C-30.94281646 57.69582807 -31.6883213 50.34686796 -32.76760864 42.89511108 C-33.04900135 40.89706431 -33.28656962 38.89300196 -33.52319336 36.88916016 C-34.57395787 29.73866364 -34.57395787 29.73866364 -38.60644531 23.96264648 C-41.06782574 22.23273449 -43.48342587 20.74767653 -46.1796875 19.41918945 C-43.58831217 13.75343976 -38.63001377 10.55562022 -33.85400391 6.7668457 C-32.21994464 5.4515924 -30.62691813 4.09763045 -29.03515625 2.73168945 C-28.03097656 1.90668945 -27.02679688 1.08168945 -25.9921875 0.23168945 C-25.09113281 -0.52499023 -24.19007812 -1.28166992 -23.26171875 -2.0612793 C-16.25350473 -5.5165331 -7.25217013 -1.77938457 0 0 Z " fill="#050505" transform="translate(133.1796875,208.580810546875)"/>
<path d="M0 0 C5.5252505 4.59222667 10.59153169 9.50260115 15.625 14.625 C21.1050453 20.25153186 21.1050453 20.25153186 27.0234375 25.3984375 C28.00183594 26.19121094 28.00183594 26.19121094 29 27 C29 27.66 29 28.32 29 29 C29.59240479 29.26570801 30.18480957 29.53141602 30.79516602 29.80517578 C33.05699757 31.03088762 34.49390782 32.27748921 36.27734375 34.1171875 C37.17163086 35.02791016 37.17163086 35.02791016 38.08398438 35.95703125 C38.69564453 36.58996094 39.30730469 37.22289062 39.9375 37.875 C41.1524962 39.124784 42.36989648 40.37223592 43.58984375 41.6171875 C44.12472412 42.17003418 44.65960449 42.72288086 45.21069336 43.29248047 C47.04870059 45.12715166 47.04870059 45.12715166 49.59350586 46.85131836 C52.46857706 49.41837746 53.00430797 51.05265132 53.9140625 54.76171875 C54.20023438 55.88126953 54.48640625 57.00082031 54.78125 58.15429688 C55.0596875 59.32025391 55.338125 60.48621094 55.625 61.6875 C56.19807796 63.98368399 56.77355605 66.27927043 57.3515625 68.57421875 C57.62645508 69.67685059 57.90134766 70.77948242 58.18457031 71.91552734 C59.08633388 75.32656952 60.17173263 78.63603179 61.32568359 81.96801758 C62.41977761 85.26495622 63.22178981 88.61676073 64 92 C64.16878662 92.72348633 64.33757324 93.44697266 64.51147461 94.19238281 C65.84896623 100.05379902 66.92724725 105.94460856 67.91699219 111.87353516 C68.86276333 117.47349585 70.12651153 122.96051035 71.546875 128.4609375 C72 131 72 131 71 134 C70.68361572 133.49774902 70.36723145 132.99549805 70.04125977 132.47802734 C64.53723995 123.74366854 59.02569561 115.01555049 53.42919922 106.34008789 C47.19515204 96.66163948 41.08634405 86.90266025 34.953125 77.16015625 C26.36060095 63.51981925 17.74821778 49.87921771 8.69921875 36.53515625 C7.64501237 34.9623288 6.62035483 33.36871681 5.64453125 31.74609375 C3.39686409 28.14546189 2.40600545 27.09983741 -1.8125 26.0625 C-2.864375 26.041875 -3.91625 26.02125 -5 26 C-4.34662068 22.23103298 -3.26038145 18.834582 -1.9375 15.25 C-0.09529068 9.87633526 0.37633543 5.64503144 0 0 Z " fill="#070707" transform="translate(155,176)"/>
<path d="M0 0 C10.61642791 1.04423881 20.75237526 3.02680133 31 6 C31.20336343 11.97210616 30.52740433 17.14387928 29.125 22.9375 C28.95097656 23.68451172 28.77695312 24.43152344 28.59765625 25.20117188 C28.24752589 26.70413886 27.89241978 28.2059558 27.53222656 29.70654297 C27.16257445 31.29943834 26.81725851 32.89809902 26.49121094 34.50048828 C26.3265332 35.30599121 26.16185547 36.11149414 25.9921875 36.94140625 C25.84894043 37.67174072 25.70569336 38.4020752 25.55810547 39.15454102 C25 41 25 41 23 43 C22.62302979 42.29617188 22.24605957 41.59234375 21.85766602 40.8671875 C20.09429969 37.57721678 18.32905457 34.28825952 16.5625 31 C16.24553162 30.40986115 15.92856323 29.81972229 15.60198975 29.21170044 C11.31950265 21.24389393 6.99049951 13.30666462 2.49047852 5.45898438 C0 1.09809833 0 1.09809833 0 0 Z " fill="#F3F3F3" transform="translate(336,229)"/>
<path d="M0 0 C3.28915747 2.52362323 5.02406668 5.40522975 7 9 C7.82757813 10.07507813 7.82757813 10.07507813 8.671875 11.171875 C10 13 10 13 10 15 C7.07178145 16.70400669 4.131112 18.38524739 1.1875 20.0625 C0.35412109 20.54783203 -0.47925781 21.03316406 -1.33789062 21.53320312 C-2.54155273 22.21479492 -2.54155273 22.21479492 -3.76953125 22.91015625 C-4.87711792 23.54642944 -4.87711792 23.54642944 -6.00708008 24.19555664 C-8 25 -8 25 -11 24 C-12.07495117 22.09814453 -12.07495117 22.09814453 -13.04296875 19.6328125 C-13.39423828 18.74722656 -13.74550781 17.86164063 -14.10742188 16.94921875 C-14.46384766 16.01722656 -14.82027344 15.08523438 -15.1875 14.125 C-15.55552734 13.20074219 -15.92355469 12.27648437 -16.30273438 11.32421875 C-19 4.42842648 -19 4.42842648 -19 1 C-12.82012659 -0.8461394 -6.32018821 -1.06801041 0 0 Z " fill="#F1F1F1" transform="translate(143,255)"/>
<path d="M0 0 C2.70501933 1.35250966 2.81756948 2.63661998 3.875 5.4375 C5.58659638 9.92239727 7.39381322 14.35308198 9.265625 18.7734375 C10 21 10 21 10 25 C5.05 26.32 0.1 27.64 -5 29 C-5.43312934 21.63680123 -3.8106651 15.11017271 -2 8 C-1.78730469 7.13761719 -1.57460937 6.27523437 -1.35546875 5.38671875 C-0.91166338 3.58914738 -0.45733895 1.79417589 0 0 Z " fill="#ECECEB" transform="translate(257,203)"/>
<path d="M0 0 C8.13420754 1.22590007 16.05047454 2.8857645 24 5 C20.31190558 7.97229051 16.58327248 10.88327608 12.8125 13.75 C11.24435547 14.94882813 11.24435547 14.94882813 9.64453125 16.171875 C7 18 7 18 5 18 C4.16112944 15.56427941 3.32873471 13.12666783 2.5 10.6875 C2.14228516 9.65206055 2.14228516 9.65206055 1.77734375 8.59570312 C0.76791737 5.61068511 0 3.17341086 0 0 Z " fill="#EFEFEF" transform="translate(112,223)"/>
<path d="M0 0 C2.51242417 3.03794555 3.88228534 5.91438973 5.1875 9.625 C5.53167969 10.58664062 5.87585938 11.54828125 6.23046875 12.5390625 C7 15 7 15 7 17 C6.01 17 5.02 17 4 17 C4 16.34 4 15.68 4 15 C3.34 15 2.68 15 2 15 C2 14.34 2 13.68 2 13 C1.34 13 0.68 13 0 13 C-1.7143618 11.04072937 -3.38405168 9.04119788 -5 7 C-1.98968256 6.06576355 -1.13349732 5.95550089 2 7 C1.34 6.01 0.68 5.02 0 4 C0 2.68 0 1.36 0 0 Z " fill="#CACAC8" transform="translate(451,388)"/>
<path d="M0 0 C0.33 0.99 0.66 1.98 1 3 C0.39671875 3.58007812 -0.2065625 4.16015625 -0.828125 4.7578125 C-5.09954668 8.93278273 -8.96004212 12.8452888 -12 18 C-13.32 17.67 -14.64 17.34 -16 17 C-15.55084229 16.5560791 -15.10168457 16.1121582 -14.63891602 15.65478516 C-12.61084393 13.64746397 -10.58663584 11.63629001 -8.5625 9.625 C-7.85544922 8.92632812 -7.14839844 8.22765625 -6.41992188 7.5078125 C-5.74638672 6.8375 -5.07285156 6.1671875 -4.37890625 5.4765625 C-3.7557251 4.85861816 -3.13254395 4.24067383 -2.49047852 3.60400391 C-0.90951849 2.05339933 -0.90951849 2.05339933 0 0 Z " fill="#B1B1B1" transform="translate(242,177)"/>
<path d="M0 0 C4.0084034 2.0042017 5.41409657 3.49055963 8 7 C6.68 7.33 5.36 7.66 4 8 C4 7.01 4 6.02 4 5 C3.34 5 2.68 5 2 5 C1.67 6.32 1.34 7.64 1 9 C0.67 6.03 0.34 3.06 0 0 Z " fill="#CDCDCB" transform="translate(138,146)"/>
<path d="M0 0 C0.66 0.33 1.32 0.66 2 1 C1.67 2.32 1.34 3.64 1 5 C2.32 4.67 3.64 4.34 5 4 C3.7260411 6.03833424 2.38938077 8.03852126 1 10 C0.34 10 -0.32 10 -1 10 C-2.25 3.375 -2.25 3.375 0 0 Z " fill="#FBFBF9" transform="translate(189,197)"/>
<path d="M0 0 C1.65 0 3.3 0 5 0 C5.66 1.98 6.32 3.96 7 6 C4.69 5.67 2.38 5.34 0 5 C-0.33 4.01 -0.66 3.02 -1 2 C-0.67 1.34 -0.34 0.68 0 0 Z " fill="#FAFAF8" transform="translate(446,389)"/>
<path d="M0 0 C2.52588702 2.36292656 3.88820837 3.66462511 5 7 C4 8 4 8 1.4375 8.0625 C0.633125 8.041875 -0.17125 8.02125 -1 8 C-1.93065133 5.39417629 -2.14917407 4.35801776 -1.0625 1.75 C-0.711875 1.1725 -0.36125 0.595 0 0 Z " fill="#D7D7D6" transform="translate(373,315)"/>
<path d="M0 0 C2.82858266 3.36736031 4.4998253 6.87451958 6 11 C5.67 11.99 5.34 12.98 5 14 C3.964031 12.42652824 2.94668268 10.84078454 1.9375 9.25 C1.36902344 8.36828125 0.80054688 7.4865625 0.21484375 6.578125 C-1 4 -1 4 -0.68359375 1.671875 C-0.45800781 1.12015625 -0.23242188 0.5684375 0 0 Z " fill="#CBCBCA" transform="translate(322,257)"/>
<path d="M0 0 C-0.66 1.65 -1.32 3.3 -2 5 C-2.99 5 -3.98 5 -5 5 C-5.66 4.34 -6.32 3.68 -7 3 C-6.67 2.01 -6.34 1.02 -6 0 C-3.50907189 -1.24546405 -2.58919267 -0.7767578 0 0 Z " fill="#FAFAF8" transform="translate(223,205)"/>
<path d="M0 0 C2.18994248 3.28491373 2.35277339 4.83095639 2.625 8.6875 C2.69976562 9.68136719 2.77453125 10.67523438 2.8515625 11.69921875 C2.90054688 12.45847656 2.94953125 13.21773438 3 14 C1.0625 13.1875 1.0625 13.1875 -1 12 C-1.33 11.01 -1.66 10.02 -2 9 C-1.34 9 -0.68 9 0 9 C0.33 8.01 0.66 7.02 1 6 C0.34 5.67 -0.32 5.34 -1 5 C-0.67 3.35 -0.34 1.7 0 0 Z " fill="#A5A5A3" transform="translate(243,337)"/>
<path d="M0 0 C0.66 0.33 1.32 0.66 2 1 C2 3.97 2 6.94 2 10 C1.01 10.33 0.02 10.66 -1 11 C-1.125 3.375 -1.125 3.375 0 0 Z " fill="#DCDCDB" transform="translate(257,203)"/>
<path d="M0 0 C1.80125336 2.70188004 3.00243753 4.93057703 4 8 C3.67 8.99 3.34 9.98 3 11 C1.02 8.36 -0.96 5.72 -3 3 C-2.01 3 -1.02 3 0 3 C0 2.01 0 1.02 0 0 Z " fill="#242524" transform="translate(425,351)"/>
<path d="M0 0 C4.455 0.99 4.455 0.99 9 2 C7.35 3.32 5.7 4.64 4 6 C3.67 5.34 3.34 4.68 3 4 C2.34 3.67 1.68 3.34 1 3 C0.67 2.01 0.34 1.02 0 0 Z " fill="#E0E0E0" transform="translate(127,226)"/>
<path d="M0 0 C0.99 0.33 1.98 0.66 3 1 C0.59757773 4.17462943 -1.61713276 6.85751741 -5 9 C-5.66 9 -6.32 9 -7 9 C-7 8.34 -7 7.68 -7 7 C-6.34 7 -5.68 7 -5 7 C-5 6.34 -5 5.68 -5 5 C-4.34 5 -3.68 5 -3 5 C-3 4.34 -3 3.68 -3 3 C-2.34 3 -1.68 3 -1 3 C-0.67 2.01 -0.34 1.02 0 0 Z " fill="#B9B9B9" transform="translate(251,168)"/>
<path d="M0 0 C1.5 1.1875 1.5 1.1875 3 3 C3.1875 5.6875 3.1875 5.6875 3 8 C2.67 7.34 2.34 6.68 2 6 C-0.02463255 5.34786708 -0.02463255 5.34786708 -2 5 C-1.125 1.125 -1.125 1.125 0 0 Z " fill="#DDDDDB" transform="translate(241,340)"/>
<path d="M0 0 C4.455 0.99 4.455 0.99 9 2 C7.35 3.32 5.7 4.64 4 6 C2.62437146 4.71034824 1.29233607 3.37310707 0 2 C0 1.34 0 0.68 0 0 Z " fill="#CECECE" transform="translate(339,285)"/>
<path d="M0 0 C0 0.99 0 1.98 0 3 C-2 4.6875 -2 4.6875 -4 6 C-3.34 6.66 -2.68 7.32 -2 8 C-3.98 8 -5.96 8 -8 8 C-7.04578192 6.85073734 -6.08647955 5.70569459 -5.125 4.5625 C-4.59132812 3.92441406 -4.05765625 3.28632813 -3.5078125 2.62890625 C-2 1 -2 1 0 0 Z " fill="#D4D4D4" transform="translate(157,231)"/>
<path d="M0 0 C0.33 0 0.66 0 1 0 C1.66 3.63 2.32 7.26 3 11 C0.16671013 8.16671013 -0.7191375 6.64553172 -2 3 C-1.34 3 -0.68 3 0 3 C0 2.01 0 1.02 0 0 Z " fill="#424242" transform="translate(224,299)"/>
<path d="M0 0 C0.99 0.99 1.98 1.98 3 3 C2.67 3.99 2.34 4.98 2 6 C-1.5625 7.1875 -1.5625 7.1875 -5 8 C-3 5 -3 5 0 4 C0 2.68 0 1.36 0 0 Z " fill="#2F2F2F" transform="translate(194,273)"/>
<path d="M0 0 C0.33 0 0.66 0 1 0 C1.05437607 1.58294782 1.09296271 3.16644256 1.125 4.75 C1.14820312 5.63171875 1.17140625 6.5134375 1.1953125 7.421875 C0.99139502 10.1135858 0.36551721 11.69904974 -1 14 C-1.66 12.68 -2.32 11.36 -3 10 C-2.34 9.01 -1.68 8.02 -1 7 C-0.60612212 4.67612053 -0.26513915 2.34206251 0 0 Z " fill="#CBCBCB" transform="translate(102,265)"/>
<path d="M0 0 C1.0326802 2.78823655 1.04509293 3.8677274 0.0625 6.75 C-0.288125 7.4925 -0.63875 8.235 -1 9 C-1.99 7.68 -2.98 6.36 -4 5 C-3.34 4.67 -2.68 4.34 -2 4 C-2 3.34 -2 2.68 -2 2 C-1.34 2 -0.68 2 0 2 C0 1.34 0 0.68 0 0 Z " fill="#C4C4C4" transform="translate(361,263)"/>
<path d="M0 0 C0.33 1.32 0.66 2.64 1 4 C-0.96466413 5.06775224 -2.96855359 6.06553465 -5 7 C-5.66 6.67 -6.32 6.34 -7 6 C-4.69 4.02 -2.38 2.04 0 0 Z " fill="#D1D1CE" transform="translate(83,215)"/>
<path d="M0 0 C2 1 4 2 6 3 C5.67 3.66 5.34 4.32 5 5 C2.4375 5.625 2.4375 5.625 0 6 C0 4.02 0 2.04 0 0 Z " fill="#D8D8D8" transform="translate(190,196)"/>
<path d="M0 0 C2.4375 0.8125 2.4375 0.8125 5 2 C5.33 2.99 5.66 3.98 6 5 C6.99 5.33 7.98 5.66 9 6 C8.34 6.66 7.68 7.32 7 8 C5.83035398 6.8572081 4.66435444 5.71068285 3.5 4.5625 C2.8503125 3.92441406 2.200625 3.28632813 1.53125 2.62890625 C0 1 0 1 0 0 Z " fill="#DDDDDC" transform="translate(156,176)"/>
<path d="M0 0 C0.99 0.33 1.98 0.66 3 1 C-0.465 3.97 -0.465 3.97 -4 7 C-4 5.68 -4 4.36 -4 3 C-3.34 3 -2.68 3 -2 3 C-1.67 2.34 -1.34 1.68 -1 1 C-0.67 0.67 -0.34 0.34 0 0 Z " fill="#D2D2D0" transform="translate(250,185)"/>
<path d="M0 0 C0.33 0.66 0.66 1.32 1 2 C-0.98 4.31 -2.96 6.62 -5 9 C-5.66 8.67 -6.32 8.34 -7 8 C-4.69 5.36 -2.38 2.72 0 0 Z " fill="#A2A2A1" transform="translate(267,151)"/>
<path d="M0 0 C2.475 0.99 2.475 0.99 5 2 C4.67 2.99 4.34 3.98 4 5 C2.0625 4.6875 2.0625 4.6875 0 4 C-0.33 3.01 -0.66 2.02 -1 1 C-0.67 0.67 -0.34 0.34 0 0 Z " fill="#FBFBF9" transform="translate(412,354)"/>
<path d="M0 0 C1.32 0.66 2.64 1.32 4 2 C4 1.34 4 0.68 4 0 C4.99 0.33 5.98 0.66 7 1 C4.53721199 3.46278801 2.29323018 3.99771255 -1 5 C-0.67 3.35 -0.34 1.7 0 0 Z " fill="#C9C9C7" transform="translate(234,285)"/>
<path d="M0 0 C0.99 0 1.98 0 3 0 C3.625 3.375 3.625 3.375 4 7 C3.34 7.66 2.68 8.32 2 9 C1.34 6.03 0.68 3.06 0 0 Z " fill="#DDDDDD" transform="translate(112,223)"/>
<path d="M0 0 C0.33 0.99 0.66 1.98 1 3 C-0.4375 5.1875 -0.4375 5.1875 -2 7 C-2.99 6.34 -3.98 5.68 -5 5 C-3.35 3.35 -1.7 1.7 0 0 Z " fill="#C7C6C5" transform="translate(216,205)"/>
</svg>
